<?xml version="1.0" encoding="utf-8"?>
<!-- Generator: Adobe Illustrator 25.3.1, SVG Export Plug-In . SVG Version: 6.00 Build 0)  -->
<svg version="1.1" id="Layer_1" xmlns="http://www.w3.org/2000/svg" xmlns:xlink="http://www.w3.org/1999/xlink" x="0px" y="0px"
	 viewBox="0 0 711 534.9" style="enable-background:new 0 0 711 534.9;" xml:space="preserve">
<style type="text/css">
	.st0{fill:#FEE800;}
</style>
<g transform="translate(0.000000,370.000000) scale(0.100000,-0.100000)">
	<path class="st0" d="M6235.4,3181.2c-98-13-235.2-37.8-305.2-54.8c-117.6-30-133-37.8-189-95.2c-32.2-33.9-93.8-109.6-134.4-167
		c-98-134.4-358.4-561.1-456.4-747.6c-42-79.6-82.6-143.5-91-140.9c-7,1.3-35,43.1-61.6,91.3c-60.2,108.3-71.4,207.5-36.4,310.5
		c44.8,129.2,190.4,357.5,357,561.1c15.4,18.3,23.8,37.8,18.2,40.4c-11.2,6.5-322-84.8-438.2-129.2
		c-106.4-39.1-196-97.9-229.6-147.4c-18.2-26.1-42-93.9-54.6-151.4c-16.8-74.4-33.6-112.2-58.8-135.7
		c-43.4-41.8-65.8-31.3-127.4,54.8c-85.4,120-79.8,118.7-177.8,71.8c-46.2-20.9-109.2-54.8-140-73.1l-54.6-33.9l9.8-116.1
		c15.4-194.4,47.6-263.6,203-433.2c53.2-58.7,119-107,259-189.2c103.6-61.3,233.8-146.1,291.2-190.5c56-44.4,127.4-95.2,156.8-113.5
		c30.8-18.3,99.4-74.4,154-125.3c53.2-50.9,106.4-92.6,119-92.6c23.8,0,128.8,187.9,403.2,717.6
		c277.2,533.7,536.1,926.4,810.5,1221.3l74.2,80.9l-61.6,3.9C6442.6,3200.8,6334.8,3193,6235.4,3181.2z"/>
	<path class="st0" d="M3638.7,2226.1c-142.8-77-214.2-122.6-239.4-156.6c-37.8-47-37.8-47-18.2-140.9
		c11.2-52.2,25.2-112.2,33.6-133.1c26.6-70.5,23.8-73.1-100.8-73.1c-298.2-1.3-555.7-70.5-739.1-199.6
		c-190.4-134.4-329-274-344.4-348.4c-8.4-37.8-7-43.1,15.4-35.2c50.4,19.6,266,48.3,348.6,48.3c354.2,0,775.5-125.3,965.9-288.4
		l79.8-67.8l86.8,41.8c152.6,71.8,422.8,97.9,615.9,60c254.8-49.6,498.3-264.9,617.3-544.1c63-144.8,74.2-159.2,84-100.5
		c2.8,24.8,19.6,138.3,37.8,253.1c16.8,114.8,44.8,257,63,317.1c18.2,58.7,33.6,116.1,33.6,126.6c0,28.7-296.8,300.1-429.8,392.7
		c-61.6,44.4-165.2,105.7-228.2,137c-61.6,31.3-162.4,92.6-222.6,137c-198.8,146.1-401.8,439.7-417.2,605.4
		c-4.2,45.7-14,78.3-23.8,77C3848.7,2334.4,3750.7,2284.9,3638.7,2226.1z"/>
	<path class="st0" d="M2588.8,1062.3c-203-22.2-422.8-90-573.9-176.1c-81.2-47-410.2-378.4-638.3-644.6C1154-16.8,776-532.1,748-613
		c-11.2-33.9,15.4-99.2,44.8-109.6c11.2-3.9,121.8,39.1,246.4,96.6c226.8,103.1,319.2,134.4,685.9,233.6
		c287,78.3,453.6,99.2,793.7,99.2h287l252-60c428.4-103.1,788.1-148.7,1154.9-147.4c250.6,1.3,751.7,26.1,789.5,39.1
		c32.2,11.7,49,113.5,33.6,211.4c-29.4,189.2-58.8,289.7-131.6,439.7c-135.8,275.3-322,480.2-477.3,521.9
		c-152.6,41.8-291.2,61.3-425.6,61.3c-113.4,0-155.4-6.5-263.2-40.4l-130.2-40.4l-78.4,66.5c-105,86.1-256.2,180.1-355.6,216.6
		C3006,1038.8,2738.6,1077.9,2588.8,1062.3z M2754,469.9c110.6-28.7,253.4-90,280-121.3c28-30,28-113.5,0-130.5
		c-18.2-10.4-60.8-39.8-164.6-20.6l-231.7,42.7l-209.8,16c-190.4,0-315,41.5-315,45.4c0,11.7,112,107,158.2,135.7
		C2374.6,499.9,2581.8,514.3,2754,469.9z M4215.7,233.4c47.5-13.3,53.2-18,113.8-42.3c34-13.6,71.1-60.1,84.1-78.5l42-120.8
		l-271,51.4c-198.8,7.8-343,24.8-362.6,41.8c-15.4,14.4,53.2,79.6,119,113.5C4019.4,240.3,4119.1,260.8,4215.7,233.4z"/>
</g>
<path class="st0" d="M78.9,459.1c-8.3,4-19,14.5-25.2,20.1c-10.5,9.1,5.5,6.8,49.6-6.3c60.8-17.9,107.9-20.1,182.8-9.3
	c65.8,9.5,152,9.5,186.9,0.3l13.4-3.7l9.2-20.6c-37.2-0.7-112.8,10.3-152.6-0.4c-64.7-17-103.9-17.1-173.6-1.6
	C135.2,445.3,86.6,454.6,78.9,459.1z"/>
</svg>
