<?xml version="1.0" encoding="utf-8"?>
<!-- Generator: Adobe Illustrator 25.3.1, SVG Export Plug-In . SVG Version: 6.00 Build 0)  -->
<svg version="1.1" id="Layer_1" xmlns="http://www.w3.org/2000/svg" xmlns:xlink="http://www.w3.org/1999/xlink" x="0px" y="0px"
	 viewBox="0 0 975 709" style="enable-background:new 0 0 975 709;" xml:space="preserve">
<g transform="translate(0.000000,401.000000) scale(0.100000,-0.100000)">
	<path d="M7441.5,2712.5c-42.7,1.1-83.3,5.8-89.1,8.4c-0.9,0.4-1.8,0.8-2.9,1.1c-1-0.2-2-0.4-3-0.6c-72.5-15.1-146.8-22.4-220.3-31
		c-114.5-13.3-224.4-44-333.9-77.1c-14.1-12.4-31.6-30.5-47.8-50.1c-27.6-32.2-69.4-81.6-93.2-108.6
		c-74.4-86-510.7-861.3-522.5-929.6c-5.8-32.6-18-29.6-50.9,12.3c-21,26.5-54.4,105.3-78.4,176.1c-0.9,17.9-1.6,35.7-1.9,53.6
		c-0.4,22.7,1.1,49.5-1.3,74.9c3.9,15.1,7.9,30.3,12.4,45.3c20.8,69.6,49,136.4,84,200c11.4,20.6,23.7,40.7,36.4,60.5
		c10,18.1,20.3,36,30.8,53.5c24.1,40.1,50.1,80.5,79.1,118.3c40.3,62.3,85,121.7,135,175.1c-2.6,1.6-5.3,3.1-8.2,4.3
		c-3.2,2.3-6.7,4.1-10.4,5.3c-10-1.1-20-2.1-30.1-3c-2.6-1.4-5.3-3-8-5.1c-3.8-3-7.6-6-11.4-9c-2.4-1.3-4.9-2.5-7.4-3.7
		c-0.9-0.1-1.8-0.2-2.7-0.3c-67.1-8.5-285.2-83.1-397.4-135.8c-47.2-22.9-96.2-55.1-130.9-84.2c-4.3-5.1-8.5-10.2-12.8-15.4
		c-10.5-24.4-23.7-47.4-37.2-70.1c-15-63.1-24-127.5-40.2-190.3c-3.3-12.9-10.1-22-18.6-27.7c-2.7-3.2-6-5.9-9.7-8.3
		c-12.6-30-53.6-47.8-81-18.2c-45.9,49.4-68.4,127.9-124.9,165.8c-2.7,1.8-5,3.8-7.2,5.8l-83.9-41.5
		c-59.5-29.3-116.2-60.9-125.8-71.8c-8.7-9.3-26.9-22.2-47.2-34.7c0.3-1.7,0.6-3.5,0.8-5.2c11.3-72.1,14.8-145,24-217.3
		c20.2-158.3,140-268,238.2-385.7C5588.1,1242.1,5757,1168,5888,1042c22.6-15.5,41.4-30,53.5-41.9c10.1-9.7,22.7-21.3,34.5-31.7
		c47.3-25.5,93.1-53.1,132.9-90.5c53.4-50.1,100.9-105.3,149.2-159.8c4.3,1.2,8.9,1.8,14,1.8c9.1,0,16.8-2,23.4-5.5
		c10.8,20.5,24,46.4,36.8,72.9c36.7,74,80,155.9,122.2,232.5c20.1,46.4,40.3,92.7,60.9,138.8c152.6,341.5,330.9,674.7,524.9,994.4
		c31.1,51.3,64.1,101.2,98.2,150.3c33,50.5,62.2,91.5,81.6,113.2c0.3,0.3,0.6,0.7,0.9,1c30.1,40.5,60.8,80.6,91.7,120.6
		c46.2,59.8,97.1,122.8,157,172.8C7461.2,2711.5,7451.8,2712,7441.5,2712.5z"/>
	<path d="M6217.7,536c-23.7,29.8-56,67.7-98.7,116c-46.2,52.9-98.1,104.3-115.5,115.2s-44.4,34.7-60.5,52.2
		c-35.6,39.8-151.4,130.2-255.4,200.7c-6.2,0.5-12.7,2.1-19.3,5.3c-180.8,87.9-336.8,200.8-455.1,365.1
		c-94.1,130.7-203.2,294.5-199.7,462.4c0.1,4.7,0.8,9,1.8,13c-10.1,1.8-21.2,0.3-32.6-6.2c-69.1-39.2-138.2-78.4-207.3-117.6
		c-62.3-35.3-131.1-66.5-184.2-115.2c-9.7-8.9-14.4-19-15.5-29c-17.1-10.4-29.7-29.4-26.4-54c12.8-94.6,35.4-186.7,67.6-276.3
		c-217.1-4.4-438.8-17.4-639.1-108.6c-103.2-47-193.2-117.7-276.1-194.3c-74.9-69.1-179.5-147.7-200.2-253.3
		c-2.1-10.8-0.9-20.4,2.4-28.7c212.2,68.4,448.6,60.4,664.7,17.7c225.6-44.5,458.6-136.3,621.5-303.8c4.3-4.4,7.5-9.1,9.9-13.9
		c16.2,9.7,33,18.1,50.1,25.8c93.3,61.5,214.6,80.5,323.1,89.7c132.3,11.2,269.9,4.5,393.1-48.8c139.1-60.1,250.2-170.7,333.3-295.6
		c3.1-2.1,6.2-4.7,9.1-7.9c68.4-73.6,92.9-175.4,132.7-265.1c11.9-26.7,22.4-53.4,32-80.2c4.3,2.5,9.1,4.3,14.5,5.3
		c2.2,115.8,24.7,232.4,42.1,345.8c17.5,114,33.4,247.7,87.2,356.3c-0.1,5.8,0.7,11.6,2.3,17.1C6218.7,528.8,6218,532.4,6217.7,536z
		"/>
	<path d="M6075.8-866.4c5.7,29.2,10.8,69.4,20.4,108.1c-0.4,1.5-0.8,2.9-1.1,4.4c-21.6,77-26.3,156.8-32.5,236.4
		c-5.6,5.7-10,13.4-12.2,23.4c-8.4,38.3-16.7,76-25.8,113.3c-4.3,8.2-8.6,16.4-13,24.6c-22.7,43.9-46.3,94.3-69.8,149.7
		c-34.7,83.9-75.6,151.7-148,245.2c-9.5,12.4-20.1,26.5-30.5,40.6c-0.7,0.8-1.5,1.5-2.2,2.4c-35.4,43.5-74.8,83.4-113.8,123.6
		c-20.9,12.7-41.7,25.6-61.9,39.4c-18.5,7.9-37.2,14.1-55.1,17.8c-23.1,5.2-56.7,14.9-76.3,22.1c-26.6,9.7-81,19.2-140.9,26.1
		c-66.1,14.8-135.1,21.1-206.1,17.7c-117.9-5.6-233.3-36.5-336.9-92c-82.9,93.6-180.2,171.5-286.9,231.5
		c-58.1,42.3-104.6,63.4-188.7,84.4c-198,67.7-414.4,80.7-622.5,29.8c-69.8-12.8-127.1-31.9-204.6-65.6
		c-180.5-78.8-236.5-115.7-317.9-227.9c-22.7-21.3-44.8-43.4-66.4-66.3c-166.8-176.7-322.9-363.5-470.2-556.7
		c-165.3-216.8-317.7-443.3-457.2-677.5c-4-6.8-6.1-13.4-6.9-19.9c-5.9-10.1-8.2-22.3-6.9-34.1c-1.8-16.4,3.4-33.6,15.6-44.7
		c6.1-30.3,38.7-56.4,73.5-36.2c145.8,84.5,298.1,157.5,455.1,218.2c84.8,26.6,193,59,338.8,102.1c61.1,18.4,117.1,34.1,169.2,47.4
		c150.7,31.1,303.8,51.2,457.8,59.8c134.2,7.5,270.4,8.7,403-16.1c129.3-24.2,254.9-65.4,383.3-94.2
		c195.1-43.6,393.8-71.6,593.4-84.5c1.3-0.4,2.7-0.9,3.8-1.3c24.1-8.4,61.2-14.9,105-19.3c20-1.2,40-2.8,60-4.5
		c79.7-4.2,170.7-2.5,246.4,6c72.4,7.9,179,15.6,238.9,16c130.7,2.7,227.4,8.8,337.5,22.6c18.7,2.3,34.4,4.2,48,5.9
		C6073-881.2,6074.3-873.8,6075.8-866.4z M4268.3-194.3c-6.4-30.9-38.5-56.3-72.1-33.9c-66.1,44.2-141.6,69.4-218.1,89.3
		c-58.5,4.3-117.4,4.2-176,4.3c-127.2,0.3-255.3-1.8-380.6-22.2c-17.1-1-27.9-0.9-28.3,0.6c-0.6,2.4,6.1,16.4,15,33.4
		c4.3,4.1,8.5,8.2,12.7,12.3c36.4,35.7,73.3,71.9,115.5,100.8c2.8,1.9,5.6,3.5,8.4,5.3c35.3,20.6,59.1,31.5,93.8,41.3
		c71,19.4,146.9,18.4,222.9,15.5c113.5-4.3,217.4-48.2,317.3-99.2c46.5-23.7,80.2-41.9,87.6-97.3c2.3-16.9,3.1-34.1,5.8-51
		C4270.9-194.8,4269.5-194.6,4268.3-194.3z M5425.9,56.3c-6.9,2.9-13.9,5.6-21,8.3c-0.3,1.8-0.8,3.6-1.4,5.4
		C5411.2,65.8,5418.6,61.2,5425.9,56.3z M5464.9-399.1c-69,4.2-139.7-0.3-207.3,3.7c-98.7,5.8-196.6,18.7-293.6,37.4
		c0.9,10.5,6.5,25.8,16.4,42.8c19.6,35.2,36.9,48.1,105.2,82.9c26.2,13.3,46.6,23.4,63.2,30.9c34.9,0.4,70.5-6,101.5-14.4
		c61.8-16.7,120.1-47.6,168.1-90.1c18.5-16.4,40.8-38.2,60.4-62.5c3.1-5.2,6.2-10.6,9.6-16.4C5492.6-391.9,5489-395.8,5464.9-399.1z
		"/>
</g>
</svg>
